<?xml version="1.0" encoding="UTF-8" standalone="no"?>
<svg
   xmlns:dc="http://purl.org/dc/elements/1.1/"
   xmlns:cc="http://creativecommons.org/ns#"
   xmlns:rdf="http://www.w3.org/1999/02/22-rdf-syntax-ns#"
   xmlns:svg="http://www.w3.org/2000/svg"
   xmlns="http://www.w3.org/2000/svg"
   xmlns:sodipodi="http://sodipodi.sourceforge.net/DTD/sodipodi-0.dtd"
   xmlns:inkscape="http://www.inkscape.org/namespaces/inkscape"
   version="1.1"
   id="svg2"
   width="32"
   height="32"
   viewBox="0 0 32 32"
   sodipodi:docname="ccc-dark.svg"
   inkscape:version="1.0.1 (3bc2e813f5, 2020-09-07)">
  <metadata
     id="metadata8">
    <rdf:RDF>
      <cc:Work
         rdf:about="">
        <dc:format>image/svg+xml</dc:format>
        <dc:type
           rdf:resource="http://purl.org/dc/dcmitype/StillImage" />
        <dc:title></dc:title>
      </cc:Work>
    </rdf:RDF>
  </metadata>
  <defs
     id="defs6" />
  <sodipodi:namedview
     pagecolor="#ffffff"
     bordercolor="#666666"
     borderopacity="1"
     objecttolerance="10"
     gridtolerance="10"
     guidetolerance="10"
     inkscape:pageopacity="0"
     inkscape:pageshadow="2"
     inkscape:window-width="1297"
     inkscape:window-height="704"
     id="namedview4"
     showgrid="true"
     inkscape:zoom="17.125"
     inkscape:cx="25.006763"
     inkscape:cy="19.108759"
     inkscape:window-x="69"
     inkscape:window-y="27"
     inkscape:window-maximized="1"
     inkscape:current-layer="g930"
     inkscape:document-rotation="0">
    <inkscape:grid
       type="xygrid"
       id="grid26" />
  </sodipodi:namedview>
  <g
     inkscape:groupmode="layer"
     inkscape:label="Image"
     id="g10">
    <g
       id="g930"
       transform="translate(0.15036564,-1.3496107)">
      <path
         id="path28"
         style="fill:none;stroke:#ffffff;stroke-width:1.84386;stroke-linecap:butt;stroke-linejoin:miter;stroke-miterlimit:4;stroke-dasharray:none;stroke-opacity:1"
         d="m 8.9072622,8.6219335 c 4.6282468,0 9.2564928,0 13.8847398,0 1.7028,0.7714859 2.32254,2.9877345 1.779241,4.6815065 -0.274505,0.933439 -0.909818,1.917335 -1.889542,2.174635 -4.591479,0 -9.182959,0 -13.7744388,0 C 7.2044639,14.706587 6.5847279,12.49034 7.1280254,10.796569 7.3912868,9.8715272 7.9957088,8.9994672 8.9072622,8.6219335 Z" />
      <path
         id="path853"
         style="fill:#ffffff;stroke-width:2;stroke-miterlimit:4;stroke-dasharray:none"
         d="m 13,12 c 0.05904,1.390427 -1.561946,2.443627 -2.808617,1.829245 C 8.8966017,13.320949 8.5858076,11.412971 9.653861,10.520842 10.642286,9.5415189 12.512724,10.030175 12.897127,11.366827 12.96518,11.570522 13.000063,11.785248 13,12 Z" />
      <g
         id="g907"
         style="opacity:1;fill:#ffffff"
         transform="translate(0,1.3)">
        <path
           id="path911"
           style="color:#000000;font-style:normal;font-variant:normal;font-weight:normal;font-stretch:normal;font-size:medium;line-height:normal;font-family:sans-serif;font-variant-ligatures:normal;font-variant-position:normal;font-variant-caps:normal;font-variant-numeric:normal;font-variant-alternates:normal;font-variant-east-asian:normal;font-feature-settings:normal;font-variation-settings:normal;text-indent:0;text-align:start;text-decoration:none;text-decoration-line:none;text-decoration-style:solid;text-decoration-color:#000000;letter-spacing:normal;word-spacing:normal;text-transform:none;writing-mode:lr-tb;direction:ltr;text-orientation:mixed;dominant-baseline:auto;baseline-shift:baseline;text-anchor:start;white-space:normal;shape-padding:0;shape-margin:0;inline-size:0;clip-rule:nonzero;display:inline;overflow:visible;visibility:visible;isolation:auto;mix-blend-mode:normal;color-interpolation:sRGB;color-interpolation-filters:linearRGB;solid-color:#000000;solid-opacity:1;vector-effect:none;fill:#ffffff;fill-opacity:1;fill-rule:nonzero;stroke:none;stroke-width:1.84386;stroke-linecap:butt;stroke-linejoin:miter;stroke-miterlimit:4;stroke-dasharray:none;stroke-dashoffset:0;stroke-opacity:1;color-rendering:auto;image-rendering:auto;shape-rendering:auto;text-rendering:auto;enable-background:accumulate;stop-color:#000000;stop-opacity:1"
           d="m 22.982422,17 c 2.213448,0.819262 3.141296,3.569662 2.521844,5.725751 -0.322324,1.313562 -1.252966,2.567942 -2.576994,2.973467 -4.736825,0 -9.47365,0 -14.2104749,0 C 6.501832,24.88347 5.5763425,22.129041 6.1949527,19.974259 6.5168924,18.659467 7.4496811,17.409277 8.7719469,17 c 4.7368251,0 9.4736501,0 14.2104751,0 z m -2.083984,1.375 c -1.826415,-0.0627 -3.360004,1.818481 -2.931396,3.595208 0.307547,1.794088 2.442976,2.918351 4.096075,2.154021 1.695387,-0.651807 2.382703,-2.958196 1.31648,-4.429986 -0.542999,-0.815382 -1.50048,-1.327685 -2.481159,-1.319243 z" />
      </g>
    </g>
  </g>
</svg>
